<svg xmlns="http://www.w3.org/2000/svg" xmlns:xlink="http://www.w3.org/1999/xlink" version="1.1" id="Calque_1" x="0px" y="0px" width="178" height="8" viewBox="0 0 178 8" style="enable-background:new 0 0 178 8;" xml:space="preserve">
<style type="text/css">
	.st0{fill:#C8357A;}
</style>
<path class="st0" d="M165,4c0-2.2,1.8-4,4-4l0,0c2.2,0,4,1.8,4,4l0,0c0,2.2-1.8,4-4,4l0,0C166.8,8,165,6.2,165,4z M150,4  c0-2.2,1.8-4,4-4l0,0c2.2,0,4,1.8,4,4l0,0c0,2.2-1.8,4-4,4l0,0C151.8,8,150,6.2,150,4z M135,4c0-2.2,1.8-4,4-4l0,0c2.2,0,4,1.8,4,4  l0,0c0,2.2-1.8,4-4,4l0,0C136.8,8,135,6.2,135,4z M120,4c0-2.2,1.8-4,4-4l0,0c2.2,0,4,1.8,4,4l0,0c0,2.2-1.8,4-4,4l0,0  C121.8,8,120,6.2,120,4z M105,4c0-2.2,1.8-4,4-4l0,0c2.2,0,4,1.8,4,4l0,0c0,2.2-1.8,4-4,4l0,0C106.8,8,105,6.2,105,4z M90,4  c0-2.2,1.8-4,4-4l0,0c2.2,0,4,1.8,4,4l0,0c0,2.2-1.8,4-4,4l0,0C91.8,8,90,6.2,90,4z M75,4c0-2.2,1.8-4,4-4l0,0c2.2,0,4,1.8,4,4l0,0  c0,2.2-1.8,4-4,4l0,0C76.8,8,75,6.2,75,4z M60,4c0-2.2,1.8-4,4-4l0,0c2.2,0,4,1.8,4,4l0,0c0,2.2-1.8,4-4,4l0,0C61.8,8,60,6.2,60,4z   M45,4c0-2.2,1.8-4,4-4l0,0c2.2,0,4,1.8,4,4l0,0c0,2.2-1.8,4-4,4l0,0C46.8,8,45,6.2,45,4z M30,4c0-2.2,1.8-4,4-4l0,0  c2.2,0,4,1.8,4,4l0,0c0,2.2-1.8,4-4,4l0,0C31.8,8,30,6.2,30,4z M15,4c0-2.2,1.8-4,4-4l0,0c2.2,0,4,1.8,4,4l0,0c0,2.2-1.8,4-4,4l0,0  C16.8,8,15,6.2,15,4z M0,4c0-2.2,1.8-4,4-4l0,0c2.2,0,4,1.8,4,4l0,0c0,2.2-1.8,4-4,4l0,0C1.8,8,0,6.2,0,4z"/>
</svg>